<?xml version="1.0" encoding="UTF-8"?>
<svg xmlns="http://www.w3.org/2000/svg" version="1.1" viewBox="0 0 256 256">
  <defs>
    <style>
      .cls-1 {
        fill: #98a3b3;
        stroke-width: 0px;
      }
    </style>
  </defs>
  <g id="Layer_1" data-name="Layer 1">
    <path class="cls-1" d="M128,16c29.92,0,58.04,11.65,79.2,32.8,21.15,21.15,32.8,49.28,32.8,79.2s-11.65,58.04-32.8,79.2c-21.15,21.15-49.28,32.8-79.2,32.8s-58.04-11.65-79.2-32.8c-21.15-21.15-32.8-49.28-32.8-79.2s11.65-58.04,32.8-79.2c21.15-21.15,49.28-32.8,79.2-32.8M128,0C57.31,0,0,57.31,0,128s57.31,128,128,128,128-57.31,128-128S198.69,0,128,0h0Z"/>
  </g>
  <g id="Layer_2" data-name="Layer 2">
    <path class="cls-1" d="M128,56c-17.67,0-32,14.33-32,32v8h16v-8c0-8.82,7.18-16,16-16s16,7.18,16,16v32c0,8.82-7.18,16-16,16v16c17.67,0,32-14.33,32-32v-32c0-17.67-14.33-32-32-32Z"/>
    <path class="cls-1" d="M144,160v8c0,8.82-7.18,16-16,16s-16-7.18-16-16v-32c0-8.82,7.18-16,16-16v-16c-17.67,0-32,14.33-32,32v32c0,17.67,14.33,32,32,32s32-14.33,32-32v-8h-16Z"/>
  </g>
</svg>